PathFileType	4	(X/Y/Z)	 s05c0401.trc
DataRate	CameraRate	NumFrames	NumMarkers	Units	OrigDataRate	OrigDataStartFrame	OrigNumFrames
200	200	4	50	mm	200	1751	2000
Frame#	Time	racr			lacr			c7			jug			rlel			rdr			llel			ldr			s2			lic			ric			lasi			rasi			rpsi			lpsi			rgt			lgt			rth1			rth2			rth3			rth4			rlfc			rmfc			rsh1			rsh2			rsh3			rsh4			rlmal			rmmal			rcal			rtoe			rmt5			lth1			lth2			lth4			lth3			llfc			lmfc			lsh1			lsh2			lsh3			lsh4			llmal			lmmal			lcal			ltoe			lmt5			SBIKE			LBIKE			RBIKE			
		X1	Y1	Z1	X2	Y2	Z2	X3	Y3	Z3	X4	Y4	Z4	X5	Y5	Z5	X6	Y6	Z6	X7	Y7	Z7	X8	Y8	Z8	X9	Y9	Z9	X10	Y10	Z10	X11	Y11	Z11	X12	Y12	Z12	X13	Y13	Z13	X14	Y14	Z14	X15	Y15	Z15	X16	Y16	Z16	X17	Y17	Z17	X18	Y18	Z18	X19	Y19	Z19	X20	Y20	Z20	X21	Y21	Z21	X22	Y22	Z22	X23	Y23	Z23	X24	Y24	Z24	X25	Y25	Z25	X26	Y26	Z26	X27	Y27	Z27	X28	Y28	Z28	X29	Y29	Z29	X30	Y30	Z30	X31	Y31	Z31	X32	Y32	Z32	X33	Y33	Z33	X34	Y34	Z34	X35	Y35	Z35	X36	Y36	Z36	X37	Y37	Z37	X38	Y38	Z38	X39	Y39	Z39	X40	Y40	Z40	X41	Y41	Z41	X42	Y42	Z42	X43	Y43	Z43	X44	Y44	Z44	X45	Y45	Z45	X46	Y46	Z46	X47	Y47	Z47	X48	Y48	Z48	X49	Y49	Z49	X50	Y50	Z50	
1751	8.7550	771.319324	1318.093857	-131.481639	753.777040	1361.496037	-431.608418	749.119914	1426.651797	-286.793659	698.075543	1270.450017	-291.630839	609.736003	1157.194026	75.032590	684.949555	966.726802	-27.409092	559.099888	1169.472192	-585.843364	678.240177	957.723083	-506.350546	156.323991	1244.895907	-322.469512	326.195143	1237.505107	-433.214528	282.739001	1242.197814	-157.687347	354.725829	1173.310970	-394.726476	312.174436	1176.606963	-179.919657	191.523757	1286.126842	-272.152922	208.671294	1286.126148	-357.925120	199.724654	1114.875613	-142.845320	259.106549	1137.422251	-477.076161	259.284817	1008.066856	-117.898485	315.563645	939.713653	-107.692076	330.771706	853.113282	-112.162840	349.321563	955.674897	-110.994405	403.947578	721.685239	-122.800485	402.639870	714.938848	-230.626863	338.703802	631.334841	-98.255142	333.631896	542.992684	-107.451860	289.233608	470.015461	-111.460289	364.742807	535.822121	-129.239202	253.479619	340.433318	-120.953504	276.982457	361.961735	-198.708736	181.994632	322.784782	-169.134401	463.650654	232.432688	-141.351121	355.155626	235.235650	-84.134565	343.044039	1019.413392	-474.598128	410.808550	970.395061	-456.213174	434.435790	990.827514	-434.775583	447.047821	887.275743	-450.931902	496.599528	753.705230	-406.933042	461.281818	751.311978	-302.565102	383.273945	700.334864	-443.705900	318.635263	642.309958	-435.835490	232.964353	621.291354	-445.256805	332.290458	616.600450	-409.911145	131.617006	561.816216	-449.238370	160.444996	560.018651	-367.963175	72.028382	601.794517	-410.205197	157.806475	321.016280	-382.829509	99.689657	406.240380	-457.259447	-213.856828	916.103868	-267.092706	-43.430701	85.331214	-474.947034	-51.757257	80.163667	-77.408285	
1752	8.7600	770.714894	1321.088405	-132.366916	753.751832	1362.305287	-433.199826	748.714339	1428.080488	-288.275160	698.281110	1272.016323	-292.571877	610.402994	1158.265287	73.899102	685.214474	966.746847	-26.981414	558.898800	1169.131354	-586.415651	678.284835	957.701682	-506.445581	156.262309	1243.444433	-321.135053	325.496528	1237.811473	-432.309548	284.064513	1240.241513	-156.527503	354.501819	1173.622075	-394.112887	313.232746	1174.783588	-179.211543	191.588726	1284.422008	-270.371352	208.181685	1285.619841	-356.545518	199.793674	1112.084275	-142.912045	259.519303	1138.161296	-476.658920	257.030733	1003.880046	-118.324402	311.306828	933.935271	-108.606562	324.045483	846.914613	-113.798244	345.433098	948.786407	-111.637561	394.070751	714.218442	-125.025008	391.934339	707.270675	-232.532442	330.228970	623.711155	-99.689458	325.812819	535.506127	-108.576349	281.926886	462.025640	-112.019158	356.784470	528.343334	-130.508527	248.090449	331.910865	-121.126616	271.591125	352.932302	-199.013034	176.709063	314.619162	-169.189326	457.896968	222.475329	-141.588127	349.410761	226.068581	-84.345479	345.295363	1021.744300	-474.682232	414.294541	974.323298	-456.728310	437.451683	995.275818	-435.226307	452.217253	891.933035	-451.641867	504.355753	759.504650	-407.618950	469.144207	756.993806	-303.076007	390.807226	707.034529	-443.476595	325.661219	649.678480	-435.525844	239.595332	629.413958	-444.155195	339.138107	623.880702	-409.653456	137.301117	571.238421	-448.497746	166.304647	569.173195	-367.544232	77.560099	611.060899	-409.531992	163.975346	330.436750	-382.652208	105.819431	415.722360	-456.974292	-213.852024	916.126125	-267.088237	-43.435741	85.339613	-474.943977	-51.759097	80.172251	-77.412962	
1753	8.7650	769.915198	1324.224867	-133.388422	753.715019	1363.007123	-434.909597	748.161452	1429.529508	-289.944364	698.287540	1273.507360	-293.600048	610.950407	1159.414325	72.878615	685.565147	966.732840	-26.412884	558.739406	1168.709187	-587.161687	678.348689	957.757450	-506.636463	156.104406	1242.108533	-319.347229	324.625534	1238.300223	-431.388921	285.601180	1238.317298	-155.318743	354.277700	1173.988582	-393.585310	314.511690	1173.177265	-178.525626	191.909466	1282.427791	-268.235929	207.844586	1284.829831	-354.625154	200.206224	1109.218481	-142.861531	259.777151	1138.997041	-476.281681	254.698789	999.691671	-118.198367	307.098774	928.222012	-109.528078	317.313690	840.900781	-115.296357	341.725780	942.180974	-112.665398	384.448412	707.113626	-127.220754	380.576418	699.964920	-234.173370	321.340346	616.541372	-101.004129	317.740252	528.239150	-109.787934	274.477864	454.428326	-112.575741	348.749744	521.303172	-131.838466	242.284355	323.843223	-121.353033	265.474754	344.655257	-199.256374	170.827186	306.984261	-169.357703	451.581204	212.916243	-141.865962	343.120332	217.346495	-84.566533	347.345767	1024.443955	-474.635028	417.612020	978.456703	-457.232235	440.356831	999.949139	-435.836451	457.312875	897.045427	-452.207738	512.156488	765.412826	-408.346892	477.259472	762.819496	-303.673304	398.691461	713.905303	-443.268594	333.004822	657.208522	-435.152670	246.784418	637.780168	-443.713855	346.287260	631.071357	-409.434178	143.643393	580.243708	-447.676215	172.538931	577.887632	-367.184693	83.589190	619.848892	-408.868040	170.698643	339.374187	-382.438605	112.480803	424.738104	-456.610893	-213.853678	916.126364	-267.097773	-43.424573	85.342404	-474.955804	-51.755559	80.149491	-77.427487	
1754	8.7700	769.189318	1327.033788	-134.568068	753.658945	1363.506864	-436.668142	747.561346	1430.810511	-291.778111	698.186599	1274.813614	-294.695352	611.381651	1160.965256	71.899662	685.990612	966.788780	-25.655109	558.559452	1168.294631	-588.086450	678.413527	957.889513	-506.826527	156.287293	1240.717632	-317.234160	323.640335	1238.760544	-430.459320	287.204699	1236.375695	-154.048798	353.924635	1174.546487	-393.208542	316.098409	1171.587937	-177.912787	192.249882	1280.381003	-265.689537	207.428772	1284.052528	-352.539712	200.935362	1106.471573	-142.898341	259.793096	1140.028257	-475.643909	252.685039	995.904590	-118.502037	302.913087	922.745782	-110.351546	310.432839	835.126215	-116.706312	337.913531	935.722832	-113.766842	374.977581	700.315146	-129.351889	369.564950	693.031502	-235.884533	312.741774	609.838026	-102.465807	309.545688	521.486984	-110.888781	266.778928	447.293377	-113.326731	340.437505	514.676269	-133.133088	236.024721	316.375316	-121.581354	259.076431	336.944512	-199.622254	164.654303	299.932795	-169.558478	444.816044	203.658686	-142.129692	336.408027	208.957991	-84.845646	349.250915	1027.376467	-474.535455	420.613015	982.977787	-457.646847	442.943790	1004.903398	-436.173664	462.322302	902.441904	-452.736721	519.857318	772.177552	-408.849337	485.337555	769.121374	-304.249038	406.695737	720.843830	-443.005183	340.587536	664.619465	-434.879695	254.256163	646.420116	-443.726204	353.755465	638.448513	-409.163373	150.373775	588.815025	-446.841293	179.205164	586.255226	-366.107612	90.071612	628.164532	-408.188500	178.033397	348.322452	-382.930395	119.662712	433.303746	-456.222942	-213.873642	916.089744	-267.104848	-43.432550	85.322751	-474.947273	-51.770312	80.151981	-77.411211	
